<svg xmlns="http://www.w3.org/2000/svg" viewBox="0 0 64 64">
  <path fill="#003893" d="M2 2v60l36-20L2 2h60L32 22l30 20H2z"/>
  <path fill="#DC143C" d="M6 8v46l27-15L6 8h42L25 24l26 17H6z"/>
  <path fill="#fff" d="M16 28a6 6 0 0 0 5-3 6 6 0 0 0-10 0 6 6 0 0 0 5 3zm7 14-1.5-1 0.5 1.8-1.8-0.5 1 1.5-1.8 0.5 1.8 0.5-1 1.5 1.8-0.5-0.5 1.8 1.5-1 0.5 1.8 0.5-1.8 1.5 1-0.5-1.8 1.8 0.5-1-1.5 1.8-0.5-1.8-0.5 1-1.5-1.8 0.5 0.5-1.8-1.5 1-0.5-1.8-0.5 1.8-1.5-1 0.5 1.8-1.8-0.5 1 1.5-1.8 0.5 1.8 0.5-1 1.5 1.8-0.5-0.5 1.8z"/>
</svg>
